<svg xmlns="http://www.w3.org/2000/svg" width="38" height="28" viewBox="0 0 38 28" fill="none">
  <path fill-rule="evenodd" clip-rule="evenodd" d="M14.3636 0.405689C17.1408 -0.10366 20.0079 0.462062 22.3835 1.98818C24.3668 3.26227 25.8836 5.12615 26.7328 7.3C27.7024 7.20389 28.6831 7.24626 29.6452 7.42786C31.0675 7.69632 32.4168 8.26295 33.6043 9.09046C34.7917 9.91797 35.7905 10.9876 36.5348 12.2289C37.2792 13.4702 37.7521 14.8551 37.9227 16.2924C38.0932 17.7297 37.9574 19.1869 37.5242 20.5679C37.0909 21.9489 36.3702 23.2225 35.4093 24.3049C34.4484 25.3873 33.2691 26.2539 31.9491 26.8477C30.6292 27.4415 29.1984 27.749 27.751 27.75H8.5L8.49603 27.75C6.42376 27.7445 4.42482 26.9825 2.87476 25.6071C1.32471 24.2318 0.330227 22.3377 0.0781717 20.2808C-0.173883 18.2239 0.333833 16.1458 1.50593 14.4369C2.43841 13.0773 3.74031 12.0258 5.24555 11.3981C5.23478 9.0097 5.9937 6.66871 7.42728 4.73116C9.1067 2.46135 11.5864 0.915038 14.3636 0.405689ZM5.79258 14.4655C5.07558 14.8744 4.454 15.4425 3.97995 16.1337C3.22136 17.2397 2.89277 18.5847 3.0559 19.9159C3.21903 21.2472 3.86266 22.473 4.86586 23.3631C5.86856 24.2528 7.16149 24.746 8.50195 24.75H27.749C28.7727 24.7493 29.7847 24.5318 30.7184 24.1118C31.652 23.6918 32.4861 23.0788 33.1658 22.3132C33.8454 21.5476 34.3553 20.6468 34.6617 19.67C34.9681 18.6931 35.0642 17.6625 34.9436 16.6459C34.8229 15.6292 34.4884 14.6497 33.9619 13.7717C33.4355 12.8937 32.729 12.1371 31.8891 11.5518C31.0491 10.9665 30.0948 10.5657 29.0888 10.3758C28.0899 10.1873 27.0625 10.2109 26.0735 10.4451L23.7689 11.0723C22.9696 11.2899 22.1452 10.8183 21.9277 10.0189C21.7101 9.21959 22.1817 8.39522 22.9811 8.17765L23.7582 7.96614C23.1149 6.56104 22.0793 5.35849 20.762 4.51222C19.027 3.39764 16.9331 2.98448 14.9048 3.35647C12.8765 3.72847 11.0655 4.8578 9.83893 6.51552C8.62187 8.16043 8.07062 10.2035 8.29415 12.2362L8.29542 12.243C8.30207 12.2778 8.31264 12.3314 8.32712 12.3995C8.35627 12.5367 8.40026 12.7282 8.45874 12.942C8.58576 13.4066 8.74385 13.8354 8.89642 14.0791C9.33599 14.7813 9.1231 15.7069 8.42091 16.1464C7.71872 16.586 6.79314 16.3731 6.35357 15.6709C6.11743 15.2937 5.93325 14.8632 5.79258 14.4655Z" fill="#9969FF"/>
</svg>