<svg xmlns="http://www.w3.org/2000/svg" width="21" height="22" viewBox="0 0 21 22" fill="none">
  <path d="M1.08549 0.579526C0.959941 0.516732 0.819288 0.490434 0.679532 0.503623C0.539775 0.516813 0.406525 0.568961 0.29494 0.654135C0.183354 0.739308 0.0979126 0.854089 0.0483339 0.98542C-0.0012448 1.11675 -0.0129703 1.25936 0.0144914 1.39703L2.11899 8.67203C2.15823 8.8076 2.23493 8.92935 2.34027 9.02328C2.44562 9.11721 2.57532 9.17952 2.71449 9.20303L11.2495 10.6325C11.6515 10.712 11.6515 11.288 11.2495 11.3675L2.71449 12.797C2.57532 12.8205 2.44562 12.8828 2.34027 12.9768C2.23493 13.0707 2.15823 13.1925 2.11899 13.328L0.0144914 20.603C-0.0129703 20.7407 -0.0012448 20.8833 0.0483339 21.0146C0.0979126 21.146 0.183354 21.2607 0.29494 21.3459C0.406525 21.4311 0.539775 21.4832 0.679532 21.4964C0.819288 21.5096 0.959941 21.4833 1.08549 21.4205L20.5855 11.6705C20.7099 11.6082 20.8145 11.5124 20.8876 11.394C20.9607 11.2756 20.9994 11.1392 20.9994 11C20.9994 10.8609 20.9607 10.7244 20.8876 10.606C20.8145 10.4876 20.7099 10.3919 20.5855 10.3295L1.08549 0.579526Z" fill="#B4B1B9"/>
</svg>